<mxfile host="65bd71144e" modified="2020-11-05T14:55:12.528Z" agent="5.0 (Macintosh; Intel Mac OS X 10_15_7) AppleWebKit/537.36 (KHTML, like Gecko) Code/1.50.1 Chrome/83.0.4103.122 Electron/9.2.1 Safari/537.36" version="13.6.5" etag="eXiWcM7RQTH2niwf16O1">
    <diagram id="9CxRA9fEEnwKYztnC6Pe" name="第 1 页">
        <mxGraphModel dx="1340" dy="539" grid="1" gridSize="10" guides="1" tooltips="1" connect="1" arrows="1" fold="1" page="1" pageScale="1" pageWidth="827" pageHeight="1169" background="#DAD2D8" math="0" shadow="0">
            <root>
                <mxCell id="0"/>
                <mxCell id="1" parent="0"/>
                <mxCell id="6" value="&lt;font color=&quot;#000000&quot;&gt;RADOS&lt;/font&gt;" style="rounded=1;whiteSpace=wrap;html=1;sketch=0;strokeColor=#A50040;fontColor=#ffffff;fillColor=#EB5E57;" vertex="1" parent="1">
                    <mxGeometry x="40" y="234" width="330" height="80" as="geometry"/>
                </mxCell>
                <mxCell id="9" value="&lt;font color=&quot;#000000&quot;&gt;LIBRADOS&lt;/font&gt;" style="rounded=0;whiteSpace=wrap;html=1;sketch=0;strokeColor=#006EAF;fontColor=#ffffff;align=left;fontStyle=0;verticalAlign=top;fillColor=#83CAD8;" vertex="1" parent="1">
                    <mxGeometry x="60" y="164" width="290" height="90" as="geometry"/>
                </mxCell>
                <mxCell id="10" value="RBD" style="rounded=0;whiteSpace=wrap;html=1;sketch=0;strokeColor=#0F8B8D;fontColor=#143642;align=left;fillColor=#CED3D3;verticalAlign=top;" vertex="1" parent="1">
                    <mxGeometry x="214" y="130" width="70" height="100" as="geometry"/>
                </mxCell>
                <mxCell id="11" value="DataMover&lt;br&gt;&lt;br&gt;&lt;font style=&quot;font-size: 10px&quot;&gt;基于快照的差异数据传输&lt;/font&gt;" style="rounded=0;whiteSpace=wrap;html=1;sketch=0;strokeColor=#0F8B8D;fillColor=#CED3D3;fontColor=#143642;align=left;verticalAlign=top;" vertex="1" parent="1">
                    <mxGeometry x="260" y="100" width="70" height="110" as="geometry"/>
                </mxCell>
                <mxCell id="12" value="RADOSGW&lt;br&gt;&lt;br&gt;&lt;font style=&quot;font-size: 10px&quot;&gt;以桶为基础的REST网关&lt;/font&gt;" style="rounded=0;whiteSpace=wrap;html=1;sketch=0;strokeColor=#0F8B8D;align=left;verticalAlign=top;fontColor=#000000;fillColor=#E7EAEA;" vertex="1" parent="1">
                    <mxGeometry x="134" y="130" width="80" height="100" as="geometry"/>
                </mxCell>
                <mxCell id="13" value="APP" style="rounded=1;whiteSpace=wrap;html=1;sketch=0;strokeColor=#0F8B8D;fillColor=#E7EAEA;fontColor=#000000;align=center;" vertex="1" parent="1">
                    <mxGeometry x="55" y="44" width="50" height="30" as="geometry"/>
                </mxCell>
                <mxCell id="14" value="APP" style="rounded=1;whiteSpace=wrap;html=1;sketch=0;strokeColor=#0F8B8D;fillColor=#E7EAEA;fontColor=#000000;align=center;" vertex="1" parent="1">
                    <mxGeometry x="156" y="44" width="36" height="30" as="geometry"/>
                </mxCell>
                <mxCell id="15" value="VM" style="rounded=1;whiteSpace=wrap;html=1;sketch=0;strokeColor=#0F8B8D;fillColor=#E7EAEA;fontColor=#000000;align=center;" vertex="1" parent="1">
                    <mxGeometry x="217" y="44" width="30" height="30" as="geometry"/>
                </mxCell>
                <mxCell id="16" value="DR" style="rounded=1;whiteSpace=wrap;html=1;sketch=0;strokeColor=#0F8B8D;fillColor=#E7EAEA;fontColor=#000000;align=center;" vertex="1" parent="1">
                    <mxGeometry x="298" y="44" width="30" height="30" as="geometry"/>
                </mxCell>
                <mxCell id="18" value="" style="endArrow=classic;html=1;strokeColor=#A8201A;fillColor=#FAE5C7;fontColor=#000000;exitX=0.5;exitY=1;exitDx=0;exitDy=0;entryX=0.75;entryY=0;entryDx=0;entryDy=0;" edge="1" parent="1" source="16" target="11">
                    <mxGeometry width="50" height="50" relative="1" as="geometry">
                        <mxPoint x="430" y="134" as="sourcePoint"/>
                        <mxPoint x="343" y="102" as="targetPoint"/>
                    </mxGeometry>
                </mxCell>
                <mxCell id="19" value="" style="endArrow=classic;html=1;strokeColor=#A8201A;fillColor=#FAE5C7;fontColor=#000000;exitX=0.5;exitY=1;exitDx=0;exitDy=0;entryX=0.068;entryY=-0.003;entryDx=0;entryDy=0;entryPerimeter=0;" edge="1" parent="1" source="13" target="9">
                    <mxGeometry width="50" height="50" relative="1" as="geometry">
                        <mxPoint x="30" y="154" as="sourcePoint"/>
                        <mxPoint x="80" y="104" as="targetPoint"/>
                    </mxGeometry>
                </mxCell>
                <mxCell id="20" value="" style="endArrow=classic;html=1;strokeColor=#A8201A;fillColor=#FAE5C7;fontColor=#000000;entryX=0.5;entryY=0;entryDx=0;entryDy=0;" edge="1" parent="1" source="14" target="12">
                    <mxGeometry width="50" height="50" relative="1" as="geometry">
                        <mxPoint x="140" y="134" as="sourcePoint"/>
                        <mxPoint x="190" y="84" as="targetPoint"/>
                    </mxGeometry>
                </mxCell>
                <mxCell id="21" value="" style="endArrow=classic;html=1;strokeColor=#A8201A;fillColor=#FAE5C7;fontColor=#000000;exitX=0.5;exitY=1;exitDx=0;exitDy=0;entryX=0.25;entryY=0;entryDx=0;entryDy=0;" edge="1" parent="1" source="15" target="10">
                    <mxGeometry width="50" height="50" relative="1" as="geometry">
                        <mxPoint x="20" y="174" as="sourcePoint"/>
                        <mxPoint x="70" y="124" as="targetPoint"/>
                    </mxGeometry>
                </mxCell>
                <mxCell id="22" value="OSDs" style="html=1;dashed=0;whitespace=wrap;rounded=0;sketch=0;strokeColor=#0F8B8D;fillColor=#E7EAEA;fontColor=#000000;align=center;" vertex="1" parent="1">
                    <mxGeometry x="204" y="350" width="80" height="40" as="geometry"/>
                </mxCell>
                <mxCell id="23" value="Monitors" style="html=1;dashed=0;whitespace=wrap;rounded=0;sketch=0;strokeColor=#0F8B8D;fillColor=#E7EAEA;fontColor=#000000;align=center;" vertex="1" parent="1">
                    <mxGeometry x="100" y="350" width="80" height="40" as="geometry"/>
                </mxCell>
            </root>
        </mxGraphModel>
    </diagram>
</mxfile>